<svg width="413" height="479" viewBox="0 0 413 479" fill="none" xmlns="http://www.w3.org/2000/svg">
<path d="M39.6964 33.7771L27.4016 49.4648L39.6964 67.0448" stroke="#4F47C8" stroke-width="3"/>
<path d="M39.6964 65.4792L27.4016 81.167L39.6964 98.747" stroke="#4F47C8" stroke-width="3"/>
<path d="M39.6964 99.1383L27.4016 114.826L39.6964 132.406" stroke="#4F47C8" stroke-width="3"/>
<path d="M27.4016 33.7771L15.1067 49.4648L27.4016 67.0448" stroke="#4F47C8" stroke-width="3"/>
<path d="M27.4017 65.4792L15.1068 81.167L27.4017 98.747" stroke="#4F47C8" stroke-width="3"/>
<path d="M27.4017 99.1383L15.1068 114.826L27.4017 132.406" stroke="#4F47C8" stroke-width="3"/>
<path d="M14.1609 33.7771L1.86608 49.4648L14.1609 67.0448" stroke="#4F47C8" stroke-width="3"/>
<path d="M14.1608 65.4792L1.86597 81.167L14.1608 98.747" stroke="#4F47C8" stroke-width="3"/>
<path d="M14.1608 99.1383L1.86597 114.826L14.1608 132.406" stroke="#4F47C8" stroke-width="3"/>
<path d="M408.651 10.9991V29.5333L392.599 38.7999L376.548 29.5333V10.9991L392.599 1.73157L408.651 10.9991Z" stroke="#4F47C8" stroke-width="3"/>
<line y1="-1.5" x2="19.5303" y2="-1.5" transform="matrix(0.869285 0.494311 -0.486898 0.873459 376.085 10.9807)" stroke="#4F47C8" stroke-width="3"/>
<line y1="-1.5" x2="20.2702" y2="-1.5" transform="matrix(0.0197981 0.999804 -0.999796 0.0201959 391.998 19.4558)" stroke="#4F47C8" stroke-width="3"/>
<line y1="-1.5" x2="20.0918" y2="-1.5" transform="matrix(0.865971 -0.500095 0.492651 0.870227 392.568 20.9816)" stroke="#4F47C8" stroke-width="3"/>
<circle cx="35.2386" cy="467.474" r="9.30865" stroke="#4F47C8" stroke-width="3"/>
<line x1="178.304" y1="27.0216" x2="178.304" y2="-2.47955e-05" stroke="#E84949" stroke-width="3"/>
<line x1="166.293" y1="12.0109" x2="192.639" y2="12.0109" stroke="#E84949" stroke-width="3"/>
</svg>
