<svg width="40" height="40" viewBox="0 0 40 40" fill="none" xmlns="http://www.w3.org/2000/svg">
<g clip-path="url(#clip0_1_4731)">
<path d="M0 34.0849C0 36.8717 2.25902 39.1304 5.04553 39.1304H34.0848C36.8717 39.1304 39.1304 36.8714 39.1304 34.0849V5.04569C39.1304 2.25871 36.8714 0 34.0849 0H5.04569C2.25871 0 0 2.25902 0 5.04553V34.0848V34.0849Z" fill="#563D7C"/>
<path d="M16.2266 17.3088V11.7674H21.1043C21.569 11.7674 22.0168 11.8061 22.4482 11.8836C22.8795 11.9609 23.2612 12.0991 23.5931 12.2983C23.9248 12.4975 24.1903 12.774 24.3894 13.1278C24.5884 13.4818 24.6881 13.9354 24.6881 14.4882C24.6881 15.4838 24.3894 16.2028 23.7921 16.6451C23.1949 17.0876 22.4317 17.3088 21.5025 17.3088H16.2266ZM11.0169 7.71912V31.4114H22.498C23.5599 31.4114 24.5941 31.2787 25.6006 31.0132C26.6072 30.7477 27.5031 30.3385 28.2884 29.7855C29.0736 29.2325 29.6986 28.5189 30.1632 27.6452C30.6278 26.7714 30.86 25.7372 30.86 24.5426C30.86 23.0604 30.5005 21.794 29.7816 20.7433C29.0626 19.6924 27.9731 18.9569 26.513 18.5365C27.5749 18.0278 28.3769 17.3752 28.9189 16.5788C29.4608 15.7824 29.7318 14.7871 29.7318 13.5924C29.7318 12.4863 29.5493 11.5573 29.1843 10.8051C28.8193 10.053 28.3049 9.45018 27.6412 8.99666C26.9777 8.54315 26.1813 8.21681 25.2521 8.01779C24.3231 7.81862 23.2944 7.71912 22.1662 7.71912H11.0169ZM16.2266 27.3631V20.8593H21.9007C23.0289 20.8593 23.9359 21.1192 24.6218 21.6392C25.3075 22.159 25.6505 23.0272 25.6505 24.2439C25.6505 24.8634 25.5453 25.3721 25.3351 25.7703C25.125 26.1685 24.8429 26.4838 24.4889 26.716C24.1351 26.9484 23.7257 27.1142 23.2612 27.2139C22.7965 27.3132 22.31 27.3631 21.8012 27.3631H16.2266Z" fill="white"/>
</g>
<defs>
<clipPath id="clip0_1_4731">
<rect width="39.1304" height="39.1304" fill="white"/>
</clipPath>
</defs>
</svg>
